{"title":"Adam_Lambert_The_Talk_720p_20110209_TTL","uid":6187459,"size":546090983,"categoryP":"video","categoryS":"hd___tv_shows","magnet":"?xt=urn:btih:b32ff1f0b84dea07e8b435abb3e3d40622261bb7&amp;dn=Adam_Lambert_The_Talk_720p_20110209_TTL&amp;tr=udp%3A%2F%2Ftracker.openbittorrent.com%3A80&amp;tr=udp%3A%2F%2Fopen.demonii.com%3A1337&amp;tr=udp%3A%2F%2Ftracker.coppersurfer.tk%3A6969&amp;tr=udp%3A%2F%2Fexodus.desync.com%3A6969","seeders":0,"leechers":1,"uploader":"thetorrentlord","files":2,"time":1298158550,"description":"The_Talk_Adam_Lambert_720p_20110209_TTL.avi\nFormat                           : AVI\nFormat/Info                      : Audio Video Interleave\nFile size                        : 521 MiB\nDuration                         : 32mn 27s\nOverall bit rate                 : 2 243 Kbps\nDirector                         : created.with.SUPER(C).v2010.bld.37\nWriting application              : SUPER(C) - by eRightSoft\n\nVideo\nID                               : 0\nFormat                           : MPEG-4 Visual\nFormat profile                   : Advanced Simple@L5\nFormat settings, BVOP            : Yes\nFormat settings, QPel            : No\nFormat settings, GMC             : No warppoints\nFormat settings, Matrix          : Default (MPEG)\nCodec ID                         : XVID\nCodec ID/Hint                    : XviD\nDuration                         : 16mn 13s\nBit rate                         : 4 361 Kbps\nWidth                            : 1 280 pixels\nHeight                           : 720 pixels\nDisplay aspect ratio             : 16:9\nFrame rate                       : 29.970 fps\nResolution                       : 8 bits\nColorimetry                      : 4:2:0\nScan type                        : Progressive\nBits/(Pixel*Frame)               : 0.158\nStream size                      : 506 MiB (97%)\nWriting library                  : XviD 1.1.2 (UTC 2006-11-01)\n\nAudio\nID                               : 1\nFormat                           : MPEG Audio\nFormat version                   : Version 2\nFormat profile                   : Layer 3\nCodec ID                         : 55\nCodec ID/Hint                    : MP3\nDuration                         : 32mn 27s\nBit rate mode                    : Constant\nBit rate                         : 112 Kbps\nChannel(s)                       : 2 channels\nSampling rate                    : 22.05 KHz\nVideo delay                      : 33ms\nStream size                      : 13.0 MiB (2%)\nAlignment                        : Aligned on interleaves\nInterleave, duration             : 26 ms (0.78 video frame)\nInterleave, preload duration     : 522 ms\nWriting library                  : LAME3.97\n\n","torrent":{"xt":"urn:btih:b32ff1f0b84dea07e8b435abb3e3d40622261bb7","amp;dn":"Adam_Lambert_The_Talk_720p_20110209_TTL","amp;tr":["udp%3A%2F%2Ftracker.openbittorrent.com%3A80","udp%3A%2F%2Fopen.demonii.com%3A1337","udp%3A%2F%2Ftracker.coppersurfer.tk%3A6969","udp%3A%2F%2Fexodus.desync.com%3A6969"],"infoHash":"b32ff1f0b84dea07e8b435abb3e3d40622261bb7","infoHashBuffer":{"type":"Buffer","data":[179,47,241,240,184,77,234,7,232,180,53,171,179,227,212,6,34,38,27,183]},"announce":[],"urlList":[]}}